<svg width="204" height="44" viewBox="0 0 204 44" fill="none" xmlns="http://www.w3.org/2000/svg">
<path d="M195.029 20.1794C195.021 19.2943 194.793 18.6064 194.346 18.1157C193.899 17.625 193.29 17.3796 192.519 17.3796C191.756 17.3796 191.156 17.625 190.718 18.1157C190.28 18.5977 190.03 19.2856 189.969 20.1794H195.029ZM197.671 27.5929C196.427 28.2151 194.876 28.5262 193.018 28.5262C190.889 28.5262 189.224 27.9435 188.023 26.778C186.831 25.6037 186.236 23.9212 186.236 21.7305C186.236 19.5397 186.788 17.8397 187.892 16.6304C189.013 15.4211 190.525 14.8164 192.427 14.8164C194.337 14.8164 195.814 15.351 196.856 16.42C197.899 17.4891 198.421 18.957 198.421 20.8235V22.5717H189.89C189.925 23.6058 190.227 24.412 190.797 24.9903C191.375 25.5599 192.173 25.8447 193.189 25.8447C194.705 25.8447 196.199 25.4986 197.671 24.8063V27.5929Z" fill="#255741"/>
<path d="M183.25 9.88721V28.2896H179.649V9.88721H183.25Z" fill="#255741"/>
<path d="M175.947 28.2895H173.423L172.726 26.4887H172.634C172.021 27.2599 171.394 27.7944 170.755 28.0924C170.115 28.3815 169.278 28.5261 168.244 28.5261C166.965 28.5261 165.961 28.1625 165.234 27.4351C164.507 26.699 164.143 25.6519 164.143 24.2936C164.143 22.9353 164.625 21.9188 165.589 21.244C166.562 20.5693 168.051 20.1968 170.058 20.1267L172.358 20.061V19.4827C172.358 18.1419 171.671 17.4715 170.295 17.4715C169.252 17.4715 168.012 17.787 166.575 18.4179L165.379 15.9862C166.895 15.1888 168.564 14.79 170.387 14.79C172.218 14.79 173.603 15.1844 174.54 15.9731C175.478 16.753 175.947 17.9228 175.947 19.4827V28.2895ZM172.358 23.2552V22.1642L170.965 22.2036C169.905 22.2386 169.12 22.4314 168.612 22.782C168.104 23.1237 167.85 23.6495 167.85 24.3593C167.85 25.3758 168.433 25.8841 169.598 25.8841C170.439 25.8841 171.11 25.6475 171.609 25.1743C172.109 24.6923 172.358 24.0526 172.358 23.2552Z" fill="#255741"/>
<path d="M157.627 26.5808C156.803 27.8778 155.581 28.5262 153.96 28.5262C152.347 28.5262 151.099 27.926 150.214 26.7254C149.329 25.5074 148.886 23.8205 148.886 21.6648C148.886 19.509 149.337 17.8309 150.24 16.6304C151.151 15.4211 152.417 14.8164 154.039 14.8164C155.66 14.8164 156.909 15.4649 157.785 16.7618H157.903C157.719 15.7716 157.627 14.8909 157.627 14.1198V9.88721H161.242V28.2896H158.482L157.785 26.5808H157.627ZM152.54 21.7436C152.54 24.3463 153.408 25.6476 155.143 25.6476C156.063 25.6476 156.738 25.3803 157.167 24.8458C157.605 24.3024 157.842 23.3911 157.877 22.1117V21.7305C157.877 20.3109 157.658 19.2944 157.22 18.6809C156.781 18.0588 156.067 17.7477 155.077 17.7477C154.271 17.7477 153.644 18.0938 153.197 18.7861C152.759 19.4696 152.54 20.4555 152.54 21.7436Z" fill="#255741"/>
<path d="M138.741 28.2896H135.139V9.88721H138.741V18.0894L138.557 21.0995H138.609L140.173 19.0884L143.88 15.0662H147.955L142.697 20.7972L148.27 28.2896H144.104L140.292 22.9266L138.741 24.1754V28.2896Z" fill="#255741"/>
<path d="M128.048 28.5262C123.93 28.5262 121.87 26.2653 121.87 21.7436C121.87 19.5003 122.427 17.7871 123.54 16.6041C124.661 15.4123 126.269 14.8164 128.364 14.8164C129.871 14.8164 131.242 15.1144 132.478 15.7102L131.413 18.51C130.108 17.9843 129.091 17.7214 128.364 17.7214C126.488 17.7214 125.551 19.0358 125.551 21.6647C125.551 24.2937 126.488 25.6081 128.364 25.6081C129.669 25.6081 130.905 25.2225 132.071 24.4514V27.5404C131.501 27.9084 130.918 28.1625 130.322 28.3028C129.735 28.4517 128.977 28.5262 128.048 28.5262Z" fill="#255741"/>
<path d="M115.343 18.6939C114.913 18.0454 114.221 17.7212 113.266 17.7212C112.311 17.7212 111.618 18.0454 111.189 18.6939C110.76 19.3336 110.545 20.3238 110.545 21.6646C110.545 22.9966 110.764 23.9912 111.202 24.6484C111.64 25.3056 112.333 25.6342 113.279 25.6342C114.225 25.6342 114.913 25.3056 115.343 24.6484C115.781 23.9912 116 22.9966 116 21.6646C116 20.3238 115.781 19.3336 115.343 18.6939ZM113.305 14.8162C115.224 14.7899 116.775 15.4077 117.958 16.6696C119.141 17.9227 119.715 19.5833 119.68 21.6514C119.68 23.8071 119.111 25.494 117.972 26.7121C116.841 27.9214 115.264 28.526 113.24 28.526C111.32 28.5436 109.769 27.9214 108.586 26.6595C107.412 25.3976 106.838 23.7283 106.864 21.6514C106.864 19.4957 107.425 17.8176 108.547 16.617C109.677 15.4165 111.263 14.8162 113.305 14.8162Z" fill="#255741"/>
<path d="M101.15 24.1493C101.15 24.6488 101.291 25.0256 101.571 25.2797C101.851 25.5251 102.276 25.6478 102.846 25.6478C103.416 25.6478 104.134 25.5119 105.002 25.2403V27.9218C104.108 28.3249 102.973 28.5264 101.597 28.5264C100.23 28.5264 99.2138 28.1671 98.5478 27.4486C97.8818 26.73 97.5488 25.6302 97.5488 24.1493V17.7741H95.8137V16.2494L97.7986 15.0401L98.8501 12.2534H101.15V15.0664H104.857V17.7741H101.15V24.1493Z" fill="#255741"/>
<path d="M94.3137 23.492C94.3137 25.043 93.7529 26.2698 92.6312 27.1724C91.5096 28.075 89.9848 28.5263 88.0569 28.5263C86.129 28.5263 84.4597 28.1802 83.0488 27.4879V24.0835C84.2143 24.5917 85.2002 24.9554 86.0064 25.1745C86.8126 25.3935 87.5881 25.5031 88.333 25.5031C89.0778 25.5031 89.6606 25.3497 90.0812 25.043C90.5106 24.7275 90.7253 24.2675 90.7253 23.6628C90.7253 23.3123 90.6289 23.01 90.4361 22.7559C90.2433 22.493 89.976 22.2476 89.6343 22.0198C89.3013 21.7832 88.5696 21.402 87.4391 20.8762C86.3175 20.3416 85.4981 19.8465 84.9811 19.3908C83.8244 18.3919 83.246 17.1387 83.246 15.6315C83.246 14.1242 83.763 12.9325 84.7971 12.0562C85.8311 11.1799 87.2639 10.7417 89.0953 10.7417C90.6464 10.7417 92.3596 11.1492 94.2349 11.9641L93.0519 14.8165C92.1317 14.4397 91.365 14.1768 90.7516 14.0278C90.1381 13.8789 89.516 13.8044 88.885 13.8044C88.2629 13.8044 87.7634 13.9621 87.3865 14.2776C87.0185 14.5931 86.8345 15.0181 86.8345 15.5526C86.8345 16.166 87.1456 16.6831 87.7677 17.1037C88.0744 17.314 88.85 17.7127 90.0943 18.2998C91.698 19.071 92.8021 19.8465 93.4068 20.6264C94.0114 21.4063 94.3137 22.3615 94.3137 23.492Z" fill="#255741"/>
<path d="M73.1403 28.2895H70.6165L69.9198 26.4887H69.8278C69.2144 27.2599 68.5879 27.7944 67.9482 28.0924C67.3085 28.3815 66.4716 28.5261 65.4375 28.5261C64.1581 28.5261 63.1548 28.1625 62.4274 27.4351C61.7001 26.699 61.3364 25.6519 61.3364 24.2936C61.3364 22.9353 61.8184 21.9188 62.7823 21.244C63.755 20.5693 65.2448 20.1968 67.2515 20.1267L69.5518 20.061V19.4827C69.5518 18.1419 68.8639 17.4715 67.4881 17.4715C66.4453 17.4715 65.2053 17.787 63.7682 18.4179L62.572 15.9862C64.088 15.1888 65.7574 14.79 67.5801 14.79C69.4116 14.79 70.7962 15.1844 71.7338 15.9731C72.6714 16.753 73.1403 17.9228 73.1403 19.4827V28.2895ZM69.5518 23.2552V22.1642L68.1585 22.2036C67.0981 22.2386 66.3138 22.4314 65.8056 22.782C65.2973 23.1237 65.0432 23.6495 65.0432 24.3593C65.0432 25.3758 65.6259 25.8841 66.7914 25.8841C67.6327 25.8841 68.3031 25.6475 68.8026 25.1743C69.302 24.6923 69.5518 24.0526 69.5518 23.2552Z" fill="#255741"/>
<path d="M49.1923 34.1129C48.5614 34.1129 47.9523 34.0472 47.3652 33.9158V31.0502C47.8209 31.1466 48.2941 31.1948 48.7848 31.1948C50.1168 31.1948 51.0457 30.4105 51.5715 28.8419L51.7949 28.1979L46.5371 15.0664H50.4936L52.978 22.5062C53.197 23.1284 53.346 23.8952 53.4249 24.8065H53.4906C53.5782 24.0003 53.7491 23.2336 54.0032 22.5062L56.4481 15.0664H60.3126L54.7262 29.9855C54.2092 31.3438 53.4775 32.3691 52.531 33.0614C51.5846 33.7624 50.4717 34.1129 49.1923 34.1129Z" fill="#255741"/>
<path d="M44.7213 19.6668V28.2896H41.1066V20.5606C41.1066 19.5967 40.9357 18.8825 40.5939 18.418C40.2522 17.9448 39.7132 17.7082 38.9771 17.7082C37.9782 17.7082 37.2508 18.0456 36.7951 18.7204C36.3395 19.3863 36.1116 20.5036 36.1116 22.0722V28.2896H32.51V15.0662H35.2704L35.7567 16.7618H35.9539C36.3482 16.1309 36.8959 15.6489 37.597 15.3159C38.3068 14.9829 39.113 14.8164 40.0156 14.8164C41.5579 14.8164 42.7277 15.2327 43.5252 16.0651C44.3226 16.8889 44.7213 18.0894 44.7213 19.6668Z" fill="#255741"/>
<path d="M28.8082 28.2895H26.2845L25.5878 26.4887H25.4958C24.8824 27.2599 24.2558 27.7944 23.6161 28.0924C22.9764 28.3815 22.1395 28.5261 21.1055 28.5261C19.8261 28.5261 18.8227 28.1625 18.0954 27.4351C17.3681 26.699 17.0044 25.6519 17.0044 24.2936C17.0044 22.9353 17.4864 21.9188 18.4503 21.244C19.423 20.5693 20.9127 20.1968 22.9195 20.1267L25.2198 20.061V19.4827C25.2198 18.1419 24.5319 17.4715 23.1561 17.4715C22.1133 17.4715 20.8733 17.787 19.4361 18.4179L18.24 15.9862C19.756 15.1888 21.4254 14.79 23.2481 14.79C25.0796 14.79 26.4641 15.1844 27.4018 15.9731C28.3394 16.753 28.8082 17.9228 28.8082 19.4827V28.2895ZM25.2198 23.2552V22.1642L23.8264 22.2036C22.7661 22.2386 21.9818 22.4314 21.4736 22.782C20.9653 23.1237 20.7112 23.6495 20.7112 24.3593C20.7112 25.3758 21.2939 25.8841 22.4594 25.8841C23.3007 25.8841 23.971 25.6475 24.4705 25.1743C24.97 24.6923 25.2198 24.0526 25.2198 23.2552Z" fill="#255741"/>
<path d="M12.7779 14.0408V28.2895H9.11059V14.0408H4.41797V10.9912H17.4705V14.0408H12.7779Z" fill="#255741"/>
</svg>
